<svg xmlns="http://www.w3.org/2000/svg" width="36.574" height="36.574" viewBox="0 0 36.574 36.574">
  <path id="Path_3" data-name="Path 3" d="M18.287,3.251a56.072,56.072,0,0,1,7.315.2,9.424,9.424,0,0,1,3.454.61A7.136,7.136,0,0,1,32.51,7.518a9.424,9.424,0,0,1,.61,3.454c0,1.829.2,2.438.2,7.315a56.073,56.073,0,0,1-.2,7.315,9.424,9.424,0,0,1-.61,3.454,7.136,7.136,0,0,1-3.454,3.454,9.424,9.424,0,0,1-3.454.61c-1.829,0-2.438.2-7.315.2a56.073,56.073,0,0,1-7.315-.2,9.424,9.424,0,0,1-3.454-.61,7.136,7.136,0,0,1-3.454-3.454,9.424,9.424,0,0,1-.61-3.454c0-1.829-.2-2.438-.2-7.315a56.072,56.072,0,0,1,.2-7.315,9.424,9.424,0,0,1,.61-3.454A7.3,7.3,0,0,1,5.486,5.486,3.435,3.435,0,0,1,7.518,4.064a9.424,9.424,0,0,1,3.454-.61,56.072,56.072,0,0,1,7.315-.2m0-3.251a60.037,60.037,0,0,0-7.518.2,12.544,12.544,0,0,0-4.47.813A7.954,7.954,0,0,0,3.048,3.048,7.954,7.954,0,0,0,1.016,6.3,9.258,9.258,0,0,0,.2,10.769,60.037,60.037,0,0,0,0,18.287a60.037,60.037,0,0,0,.2,7.518,12.544,12.544,0,0,0,.813,4.47,7.954,7.954,0,0,0,2.032,3.251A7.954,7.954,0,0,0,6.3,35.558a12.544,12.544,0,0,0,4.47.813,60.034,60.034,0,0,0,7.518.2,60.033,60.033,0,0,0,7.518-.2,12.544,12.544,0,0,0,4.47-.813,8.525,8.525,0,0,0,5.283-5.283,12.544,12.544,0,0,0,.813-4.47c0-2.032.2-2.641.2-7.518a60.034,60.034,0,0,0-.2-7.518,12.544,12.544,0,0,0-.813-4.47,7.954,7.954,0,0,0-2.032-3.251,7.954,7.954,0,0,0-3.251-2.032A12.544,12.544,0,0,0,25.805.2,60.037,60.037,0,0,0,18.287,0m0,8.94A9.2,9.2,0,0,0,8.94,18.287,9.347,9.347,0,1,0,18.287,8.94m0,15.442a5.987,5.987,0,0,1-6.1-6.1,5.987,5.987,0,0,1,6.1-6.1,5.987,5.987,0,0,1,6.1,6.1,5.987,5.987,0,0,1-6.1,6.1M28.04,6.3a2.235,2.235,0,1,0,2.235,2.235A2.255,2.255,0,0,0,28.04,6.3" fill="#95989a" fill-rule="evenodd"/>
</svg>
