<svg xmlns="http://www.w3.org/2000/svg" width="38.863" height="31.522" viewBox="0 0 38.863 31.522">
  <path id="Path_2" data-name="Path 2" d="M50.306,33.522c14.681,0,22.67-12.091,22.67-22.67V9.773a17.551,17.551,0,0,0,3.886-4.1,17.923,17.923,0,0,1-4.534,1.3,8.4,8.4,0,0,0,3.454-4.318,19.8,19.8,0,0,1-4.966,1.943A7.711,7.711,0,0,0,64.988,2,8.112,8.112,0,0,0,57,9.988a4.209,4.209,0,0,0,.216,1.727A22.322,22.322,0,0,1,40.807,3.3a8.268,8.268,0,0,0-1.08,4.1,8.578,8.578,0,0,0,3.454,6.693,7.278,7.278,0,0,1-3.67-1.08h0a7.891,7.891,0,0,0,6.477,7.773A6.656,6.656,0,0,1,43.829,21a3.674,3.674,0,0,1-1.511-.216A8.179,8.179,0,0,0,49.875,26.4a16.3,16.3,0,0,1-9.932,3.454A5.977,5.977,0,0,1,38,29.636a20.379,20.379,0,0,0,12.306,3.886" transform="translate(-38 -2)" fill="#95989a" fill-rule="evenodd"/>
</svg>
